<?xml version="1.0" encoding="utf-8"?>
<svg x="0pt" y="0pt" width="283.465pt" height="283.465pt" viewBox="0 0 283.465 283.465" xmlns="http://www.w3.org/2000/svg" xmlns:xlink="http://www.w3.org/1999/xlink">
  <g id="MScienceLogo" style="mix-blend-mode:lighten;">
    <path id="crow" style="fill:#9e9e9e;fill-opacity:1;fill-rule:nonzero;opacity:1;stroke:#9e9e9e;stroke-linecap:butt;stroke-linejoin:miter;stroke-miterlimit:10;stroke-opacity:0;stroke-width:1;" d="M118.556,62.5195 C118.474,62.7649,118.36,63.0046,118.289,63.2528 C118.238,63.4285,118.221,63.612,118.183,63.7907 C118.139,64.0032,118.078,64.2089,118.043,64.4232 C117.995,64.7099,118.003,65.1378,118.176,65.385 C118.244,65.4823,118.35,65.4837,118.454,65.4758 C118.621,65.4632,118.794,65.3741,118.958,65.3781 C119.016,65.3795,119.096,65.415,119.146,65.4433 C119.193,65.4701,119.251,65.5051,119.289,65.5439 C119.479,65.7372,119.422,65.9896,119.421,66.2307 C119.429,66.1741,119.402,66.1252,119.376,66.0758 C119.317,65.9638,119.204,65.7309,119.049,65.7415 C118.945,65.7487,118.971,65.8605,118.904,65.9095 C118.783,65.9974,118.572,65.9714,118.436,65.929 C118.33,65.8956,118.216,65.8619,118.113,65.8185 C118.033,65.7843,117.966,65.7356,117.881,65.712 C117.849,65.7031,117.743,65.6442,117.716,65.6592 C117.656,65.6918,117.668,65.792,117.629,65.8435 C117.584,65.9024,117.505,65.9469,117.469,66.0094 C117.389,66.1495,117.374,66.3197,117.325,66.4709 C117.302,66.5412,117.256,66.6012,117.217,66.6634 C117.16,66.754,117.045,66.8744,116.929,66.8794 C116.843,66.8832,116.785,66.8368,116.695,66.8759 C116.646,66.897,116.631,66.9404,116.6,66.9783 C116.466,67.1458,116.414,67.3758,116.474,67.5861 C116.473,67.5812,116.48,67.6138,116.506,67.631 C116.446,67.5425,116.342,67.5016,116.289,67.3968 C116.203,67.2259,116.209,66.9428,116.314,66.7793 C116.362,66.7043,116.442,66.6683,116.499,66.6047 C116.53,66.57,116.523,66.5187,116.559,66.4849 C116.611,66.4352,116.698,66.4415,116.755,66.3951 C116.792,66.3647,116.837,66.3311,116.863,66.2901 C116.91,66.2166,116.904,66.1896,116.984,66.1286 C117.113,66.03,117.142,65.7371,117.09,65.5611 C116.92,65.6702,116.79,65.8461,116.637,65.9803 C116.585,66.0258,116.541,66.0835,116.475,66.1112 C116.342,66.1671,116.186,66.0764,116.051,66.0705 C115.974,66.0671,115.894,66.1214,115.834,66.1643 C115.75,66.2253,115.746,66.3385,115.751,66.4295 C115.752,66.4474,115.766,66.5517,115.752,66.5595 C115.71,66.5833,115.619,66.436,115.608,66.4059 C115.542,66.2279,115.643,66.0482,115.784,65.9379 C115.976,65.7879,116.245,65.7999,116.448,65.6571 C116.514,65.6106,116.547,65.5477,116.6,65.4907 C116.655,65.4325,116.734,65.3829,116.798,65.3345 C116.855,65.291,116.914,65.2483,116.973,65.2082 C117,65.1905,117.043,65.1795,117.063,65.1543 C117.088,65.1221,117.139,65.0773,117.156,65.039 C117.174,64.995,117.166,64.9524,117.195,64.9099 C117.243,64.8416,117.336,64.8202,117.404,64.7817 C117.447,64.7577,117.456,64.7318,117.511,64.7201 C117.539,64.5769,117.587,64.3776,117.612,64.1879 C117.633,64.0302,117.632,63.8706,117.663,63.7141 C117.701,63.5173,117.804,63.3383,117.851,63.1434 C117.884,63.0053,117.89,62.8614,117.899,62.7195 C117.912,62.5102,117.873,62.3125,117.862,62.1144 C117.857,62.0224,117.823,61.9266,117.857,61.8381 C117.807,61.8489,117.765,61.904,117.731,61.9392 C117.683,61.989,117.61,62.0247,117.577,62.0893 C117.54,62.1622,117.551,62.2513,117.527,62.3282 C117.527,62.1627,117.532,61.998,117.532,61.8326 C117.488,61.8664,117.363,61.7581,117.383,61.6998 C117.441,61.5271,117.542,61.3535,117.608,61.1793 C117.63,61.1202,117.675,61.0631,117.68,60.9979 C117.688,60.8915,117.405,61.0322,117.348,60.9383 C117.324,60.8994,117.373,60.8168,117.386,60.7766 C117.43,60.6361,117.445,60.4873,117.505,60.3512 C117.394,60.1674,117.27,59.9994,117.185,59.8139 C117.165,59.7707,117.131,59.6413,117.074,59.653 C116.924,59.6834,116.88,59.9867,116.889,60.1078 C116.891,60.1404,116.944,60.3129,116.943,60.3132 C116.785,60.3397,116.69,60.1333,116.59,60.0489 C116.482,59.9569,116.301,59.9327,116.167,59.9327 C116.172,60.1651,116.243,60.3536,116.442,60.4889 C116.279,60.5371,116.14,60.4179,116.007,60.3512 C115.996,60.4671,115.917,60.5544,115.913,60.6835 C115.906,60.99,116.074,61.2203,116.161,61.4967 C116.115,61.5226,116.126,61.6415,116.069,61.6437 C116.015,61.6458,115.934,61.5161,115.88,61.5716 C115.834,61.62,115.859,61.7577,115.803,61.788 C115.752,61.8147,115.666,61.6766,115.59,61.7103 C115.567,61.7203,115.54,61.8387,115.517,61.8711 C115.435,61.9875,115.42,62.1037,115.372,62.2131 C115.294,62.3918,115.142,62.5823,115.023,62.7369 C114.941,62.8431,114.816,62.9068,114.735,63.0198 C114.624,63.1759,114.553,63.3638,114.421,63.5049 C114.295,63.6397,114.172,63.7808,114.08,63.9416 C114.047,63.9997,114.008,64.1142,114.035,64.1808 C114.122,64.4003,114.256,64.3497,114.448,64.3505 C114.545,64.351,114.607,64.4135,114.708,64.3944 C114.793,64.3783,114.842,64.3153,114.917,64.2831 C115.072,64.2165,115.197,64.1771,115.364,64.1629 C115.581,64.1446,115.68,64.2451,115.741,64.4369 C115.755,64.4788,115.776,64.5503,115.762,64.5945 C115.744,64.6476,115.597,64.5055,115.579,64.4906 C115.5,64.4248,115.348,64.3923,115.247,64.4141 C115.046,64.458,115.179,64.7099,114.991,64.7383 C114.789,64.7689,114.513,64.7536,114.313,64.7156 C114.193,64.693,114.042,64.626,113.923,64.6285 C113.88,64.6294,113.843,64.6634,113.802,64.6722 C113.718,64.6902,113.649,64.7018,113.567,64.7347 C113.392,64.8056,113.241,64.9154,113.07,64.9551 C113.013,64.9683,112.957,64.9554,112.901,64.9624 C112.843,64.9696,112.805,65.0117,112.751,65.0217 C112.621,65.0457,112.485,65.0282,112.356,65.0521 C112.206,65.0796,112.093,65.1914,111.932,65.1924 C111.762,65.1934,111.678,65.1084,111.555,65.0134 C111.502,64.9725,111.42,64.8826,111.339,64.9099 C111.083,64.9959,111.065,65.3259,110.987,65.5371 C110.987,65.4905,110.968,65.449,110.966,65.4034 C110.959,65.2327,110.972,65.0296,111.074,64.8852 C111.118,64.8228,111.223,64.814,111.264,64.7572 C111.312,64.6892,111.319,64.6087,111.386,64.5539 C111.359,64.4283,111.161,64.5255,111.073,64.5523 C110.951,64.5898,110.792,64.6514,110.718,64.7629 C110.672,64.8326,110.65,64.9159,110.619,64.9926 C110.616,64.8876,110.632,64.8019,110.652,64.7004 C110.659,64.6629,110.639,64.6225,110.659,64.5864 C110.713,64.4875,110.796,64.4402,110.877,64.3695 C110.914,64.3375,110.931,64.2867,110.97,64.2564 C111.005,64.2292,111.074,64.2153,111.117,64.2076 C111.231,64.187,111.291,64.2773,111.392,64.2869 C111.538,64.3008,111.669,64.2159,111.814,64.2294 C111.899,64.2374,111.973,64.3143,112.053,64.3401 C112.161,64.3748,112.278,64.3716,112.389,64.3855 C112.65,64.4179,112.92,64.3522,113.094,64.1282 C113.151,64.054,113.174,63.9479,113.22,63.8667 C113.235,63.8409,113.267,63.8365,113.285,63.8145 C113.342,63.7465,113.426,63.6566,113.494,63.6021 C113.545,63.5604,113.594,63.511,113.641,63.4612 C113.766,63.3284,113.891,63.1945,114.03,63.0776 C114.106,63.0137,114.191,62.9547,114.263,62.8865 C114.292,62.8591,114.306,62.8165,114.334,62.788 C114.393,62.7273,114.46,62.678,114.515,62.6131 C114.533,62.591,114.541,62.558,114.554,62.5324 C114.588,62.4661,114.627,62.4079,114.644,62.3337 C114.653,62.2937,114.642,62.2544,114.643,62.2145 C114.644,62.1976,114.657,62.1852,114.659,62.1685 C114.665,62.0966,114.658,62.005,114.642,61.9343 C114.633,61.8936,114.607,61.8579,114.599,61.8164 C114.584,61.7443,114.626,61.6614,114.601,61.595 C114.593,61.575,114.549,61.5691,114.53,61.5667 C114.51,61.5643,114.491,61.5581,114.471,61.5617 C114.407,61.5736,114.383,61.6372,114.339,61.6771 C114.327,61.6878,114.289,61.7387,114.271,61.7264 C114.239,61.7032,114.244,61.6356,114.247,61.6019 C114.256,61.4909,114.358,61.4042,114.344,61.2873 C114.343,61.2717,114.344,61.2481,114.334,61.2352 C114.322,61.2202,114.28,61.2153,114.263,61.2112 C114.224,61.2023,114.184,61.1858,114.154,61.1589 C114.084,61.0965,114.117,61.0184,114.138,60.949 C114.162,60.8725,114.204,60.7794,114.186,60.6935 C114.179,60.6595,114.141,60.6344,114.127,60.6023 C114.08,60.4952,114.027,60.3644,114.019,60.2469 C114.015,60.2036,114.034,60.1684,114.039,60.1272 C114.047,60.0611,114.043,59.9918,114.043,59.9256 C114.043,59.8883,114.052,59.8463,114.034,59.8119 C114.008,59.7632,113.923,59.6819,113.872,59.6609 C113.826,59.6423,113.767,59.6515,113.742,59.5964 C113.719,59.5473,113.736,59.4793,113.736,59.427 C113.736,59.3783,113.719,59.3312,113.712,59.2831 C113.706,59.2417,113.71,59.2071,113.702,59.1635 C113.648,58.8596,113.529,58.5189,113.404,58.2285 C113.315,58.0212,113.249,57.8009,113.152,57.595 C113.065,57.4081,112.945,57.2345,112.814,57.0756 C112.727,56.9693,112.553,56.9822,112.439,56.911 C112.315,56.8341,112.225,56.6487,112.153,56.5257 C112.066,56.3763,111.968,56.2196,111.888,56.0773 C111.713,55.7683,111.497,55.4795,111.282,55.1965 C111.229,55.1267,111.197,55.0385,111.139,54.9728 C111.036,54.8564,110.906,54.7642,110.806,54.6466 C110.487,54.2744,110.258,53.8278,110.003,53.4123 C109.85,53.164,109.644,52.9678,109.544,52.6857 C109.457,52.4371,109.336,52.1814,109.24,51.9209 C109.163,51.7087,109.118,51.4858,109.045,51.2721 C108.975,51.0661,108.893,50.8666,108.825,50.66 C108.794,50.5667,108.824,50.4673,108.803,50.373 C108.762,50.1912,108.686,50.0372,108.615,49.8676 C108.571,49.7602,108.533,49.6461,108.477,49.5444 C108.398,49.4014,108.271,49.2814,108.166,49.1592 C107.953,48.9129,107.699,48.7244,107.484,48.479 C107.301,48.2692,107.106,48.1234,106.887,48.0322 C106.81,47.9999,106.724,47.9553,106.639,47.9504 C106.468,47.9404,106.298,48.0105,106.128,48.019 C105.879,48.0314,105.629,48.0203,105.38,48.0434 C105.202,48.0598,105.04,48.1296,104.864,48.1512 C104.589,48.1851,104.312,48.1612,104.038,48.2142 C103.771,48.2658,103.517,48.3751,103.275,48.4952 C103.273,48.4962,103.271,48.4972,103.269,48.4982 C103.103,48.5823,102.939,48.6258,102.787,48.6849 C102.757,48.6966,102.653,48.7574,102.631,48.7106 C102.603,48.6512,102.718,48.525,102.747,48.4784 C102.891,48.2464,103.076,48.0895,103.238,47.8756 C103.351,47.7272,103.441,47.5155,103.594,47.3426 C103.723,47.1979,103.899,47.0239,104.056,46.9109 C104.115,46.8687,104.19,46.8553,104.246,46.8102 C104.32,46.7507,104.357,46.6616,104.437,46.608 C104.755,46.3956,105.154,46.321,105.458,46.0792 C105.576,45.9855,105.573,45.8335,105.676,45.7317 C105.921,45.4891,106.232,45.3283,106.506,45.1145 C106.674,44.9832,106.771,44.8363,106.964,44.7308 C107.161,44.6232,107.327,44.4669,107.528,44.3855 C107.715,44.3096,107.922,44.2882,108.107,44.2054 C108.238,44.1465,108.333,44.0556,108.476,44.0131 C108.965,43.868,109.489,43.8663,109.993,43.8065 C110.371,43.7616,110.807,43.6929,111.186,43.7535 C111.419,43.7907,111.726,43.8954,111.922,44.03 C112.159,44.1932,112.41,44.3941,112.699,44.4581 C112.784,44.477,112.858,44.455,112.943,44.4549 C112.763,44.7033,113.167,44.6626,113.305,44.6323 C113.291,44.6981,113.164,44.7403,113.186,44.8207 C113.197,44.8613,113.299,44.864,113.333,44.8742 C113.491,44.9213,113.706,44.8664,113.865,44.9162 C113.954,44.944,114.04,45.0757,114.172,45.1117 C114.287,45.143,114.455,45.0828,114.532,45.1915 C114.64,45.3461,114.732,45.53,114.81,45.7042 C114.848,45.7898,114.854,45.921,114.944,45.9698 C115.13,46.0698,115.43,45.9318,115.63,46.0013 C115.673,46.0159,115.651,46.0762,115.663,46.1085 C115.681,46.1531,115.738,46.1844,115.783,46.1933 C115.96,46.2289,116.155,46.1198,116.328,46.1665 C116.457,46.2012,116.399,46.3797,116.526,46.4412 C116.671,46.5108,116.881,46.4586,117.038,46.5097 C117.149,46.5461,117.207,46.6712,117.305,46.727 C117.381,46.7704,117.529,46.6942,117.585,46.77 C117.614,46.8099,117.6,46.914,117.603,46.9632 C117.765,47.0861,117.947,47.0791,118.147,47.0791 C118.085,47.0614,118.019,47.1006,117.958,47.1088 C117.808,47.1288,117.678,47.1576,117.531,47.1903 C117.49,47.1994,117.353,47.2451,117.375,47.306 C117.403,47.3852,117.635,47.3854,117.705,47.406 C118.07,47.514,118.449,47.495,118.816,47.5519 C118.703,47.7245,118.804,47.8194,118.973,47.8891 C119.178,47.9737,119.386,48.0425,119.588,48.1271 C119.402,48.1271,119.186,48.1405,119.037,48.265 C118.991,48.304,118.862,48.4512,118.959,48.5052 C119.175,48.6267,119.484,48.6593,119.725,48.7059 C120.018,48.7625,120.307,48.8754,120.598,48.9407 C120.795,48.9849,121.006,48.9664,121.201,49.0147 C121.293,49.0375,121.385,49.1001,121.464,49.1514 C121.577,49.2249,121.759,49.3543,121.944,49.405 C122.269,49.4938,122.621,49.4611,122.89,49.7029 C122.667,49.7178,122.437,49.743,122.216,49.7672 C122.176,49.7716,122.026,49.8093,122.012,49.8523 C121.998,49.8983,122.134,49.9421,122.163,49.9558 C122.333,50.037,122.507,50.1012,122.682,50.1736 C122.948,50.2841,123.223,50.3567,123.493,50.4542 C123.971,50.6266,124.446,50.8487,124.899,51.0739 C124.839,51.124,124.661,51.077,124.588,51.0691 C124.339,51.0421,124.089,51.032,123.84,51.0055 C123.801,51.0014,123.625,50.9751,123.603,51.007 C123.571,51.0545,123.682,51.2927,123.717,51.3339 C123.884,51.5272,124.19,51.5553,124.437,51.6513 C124.699,51.7526,124.95,51.8785,125.208,51.9891 C125.363,52.0554,125.548,52.0923,125.693,52.1778 C125.826,52.2562,125.872,52.4822,125.997,52.5819 C126.098,52.663,126.221,52.6097,126.336,52.6602 C126.481,52.7235,126.601,52.8762,126.73,52.9696 C126.619,52.9033,126.271,52.8835,126.189,53.0145 C126.128,53.1117,126.451,53.3201,126.514,53.3673 C126.869,53.6326,127.36,53.5671,127.743,53.7839 C128.193,54.0375,128.767,54.1823,129.265,54.2825 C129.431,54.3158,129.604,54.3022,129.77,54.3386 C130.111,54.4137,130.494,54.4487,130.822,54.5687 C130.984,54.6277,131.069,54.7931,131.24,54.8456 C131.472,54.9169,131.744,54.8766,131.982,54.9334 C131.906,55.0223,131.762,55.0515,131.755,55.1981 C131.752,55.2498,131.815,55.2843,131.854,55.3041 C131.979,55.367,132.148,55.4074,132.286,55.4363 C132.666,55.5158,133.06,55.6557,133.474,55.783 C133.615,55.8263,133.764,55.8062,133.906,55.8502 C134.117,55.9156,134.309,56.0263,134.499,56.1262 C134.63,56.1946,134.842,56.3171,134.903,56.4579 C134.924,56.5056,134.895,56.55,134.91,56.5971 C134.939,56.6884,134.987,56.774,134.908,56.8541 C134.864,56.8982,134.75,56.888,134.695,56.8711 C134.535,56.8215,134.362,56.7694,134.198,56.7399 C134.004,56.7052,133.904,56.8992,133.738,56.9212 C133.476,56.9562,133.247,56.808,132.997,56.7784 C132.788,56.7538,132.614,56.9174,132.404,56.8968 C132.061,56.8633,131.733,56.7138,131.396,56.6487 C130.934,56.5593,130.467,56.5127,130.007,56.4119 C129.796,56.3657,129.587,56.2893,129.377,56.2495 C129.146,56.2061,128.903,56.204,128.672,56.159 C128.411,56.108,128.063,56.0472,127.799,56.1218 C128.031,56.4004,128.469,56.4357,128.785,56.5787 C129.053,56.7003,129.313,56.8465,129.593,56.9429 C129.816,57.0199,130.055,57.0569,130.282,57.1277 C130.535,57.2066,130.779,57.3237,131.033,57.3939 C131.367,57.4862,131.717,57.5044,132.047,57.5991 C132.244,57.6557,132.216,57.8479,132.338,57.9619 C132.484,58.0977,132.728,58.1902,132.915,58.247 C133.321,58.3696,133.781,58.4936,134.204,58.6723 C134.363,58.7396,134.502,58.8509,134.663,58.9148 C134.88,59.0007,135.115,59.0418,135.33,59.1301 C135.559,59.2242,135.766,59.3787,135.989,59.4883 C136.197,59.5909,136.43,59.6526,136.643,59.7509 C136.48,59.8025,136.357,59.8352,136.269,59.9046 C136.215,59.9466,136.158,60.0406,136.088,60.0468 C135.938,60.06,135.792,59.9194,135.638,59.9409 C135.527,59.9565,135.537,60.1002,135.418,60.1168 C135.22,60.1443,135.004,60.0804,134.805,60.0703 C134.5,60.0549,134.199,60.0893,133.897,60.0896 C133.742,60.0898,133.651,59.8953,133.514,59.8575 C133.327,59.8059,132.984,60.0089,132.817,60.086 C132.67,60.031,132.541,59.9774,132.434,59.9925 C132.243,60.0194,132.055,60.167,131.869,60.1677 C131.801,60.1679,131.813,60.1177,131.763,60.0876 C131.687,60.0421,131.574,60.0093,131.486,60.0073 C131.429,60.0059,131.383,60.0782,131.333,60.1005 C131.251,60.1367,131.125,60.1582,131.036,60.1642 C130.986,60.1676,130.942,60.1143,130.897,60.0966 C130.792,60.0552,130.597,59.9996,130.485,60.0242 C130.4,60.0428,130.317,60.1935,130.218,60.2332 C130.204,60.1889,130.135,60.1817,130.101,60.1545 C129.969,60.0495,129.82,60.0053,129.681,59.9177 C129.627,59.8837,129.56,59.8067,129.494,59.809 C129.385,59.8128,129.315,59.9686,129.205,59.939 C129.067,59.9021,128.982,59.7937,128.862,59.738 C128.66,59.6437,128.426,59.547,128.219,59.47 C128.164,59.4498,128.06,59.4125,128.002,59.4247 C127.916,59.4431,127.829,59.5314,127.733,59.5102 C127.527,59.4641,127.242,59.1942,127.096,59.048 C126.755,59.0705,126.435,59.0645,126.115,59.0792 C125.732,59.097,125.361,59.1205,124.978,59.0717 C124.749,59.0425,124.486,58.9899,124.267,58.9176 C124.093,58.8602,123.907,58.7837,123.717,58.7977 C123.614,58.8054,123.573,58.8768,123.589,58.973 C123.594,59.0021,123.626,59.0805,123.589,59.0952 C123.53,59.1183,123.466,59.0818,123.409,59.0744 C123.277,59.0574,123.146,59.0372,123.016,59.0122 C122.963,59.0021,122.903,58.9742,122.849,58.9793 C122.775,58.9862,122.756,59.1039,122.728,59.1596 C122.718,59.1813,122.721,59.2208,122.689,59.223 C122.434,59.2412,122.175,59.0624,121.915,59.1796 C121.85,59.209,121.736,59.2717,121.694,59.3303 C121.628,59.4232,121.54,59.6022,121.431,59.6512 C121.316,59.7027,121.19,59.5844,121.077,59.6045 C120.997,59.6184,120.931,59.7253,120.894,59.7884 C120.806,59.9414,120.68,60.0829,120.693,60.2725 C120.663,60.2952,120.681,60.362,120.659,60.37 C120.619,60.3852,120.569,60.3132,120.537,60.2997 C120.408,60.2437,120.369,60.1668,120.219,60.2174 C120.054,60.2734,120.192,60.4497,120.083,60.515 C120.024,60.5498,119.918,60.3929,119.842,60.4119 C119.8,60.4222,119.772,60.5766,119.741,60.616 C119.694,60.675,119.599,60.6648,119.544,60.7187 C119.493,60.7692,119.52,60.8494,119.515,60.9122 C119.506,61.0234,119.487,61.1894,119.425,61.2843 C119.385,61.3447,119.18,61.249,119.183,61.3222 C119.185,61.3661,119.217,61.3878,119.225,61.4255 C119.248,61.5495,119.264,61.666,119.305,61.7862 C119.313,61.8096,119.364,61.9259,119.338,61.9423 C119.323,61.9521,119.289,61.9259,119.274,61.9217 C119.194,61.8997,119.114,61.8463,119.036,61.8314 C119.036,61.927,119.049,62.0219,119.073,62.1143 C119.081,62.1417,119.102,62.2005,119.076,62.2228 C119.022,62.2702,118.891,62.1788,118.856,62.2429 C118.823,62.304,118.859,62.4823,118.805,62.5215 C118.767,62.5488,118.678,62.4174,118.635,62.4127 C118.572,62.4056,118.553,62.4817,118.556,62.5195 z"/>
    <g id="circle">
      <path style="fill:#f31d24;fill-opacity:0;fill-rule:evenodd;opacity:1;stroke:none;" d="M149.694,43.1956 C212.535,47.1538,262.337,90.4045,263.197,143.997 C264.11,200.916,209.47,247.947,141.155,249.043 C91.576,249.838,48.4196,226.22,28.1283,191.448"/>
      <path style="fill:#9e9e9e;fill-opacity:1;fill-rule:nonzero;opacity:1;stroke:none;" d="M149.694,43.1956 C181.103,45.3778,209.119,57.3565,229.322,75.3989 C249.531,93.4473,261.912,117.528,262.203,144.013 C262.506,172.143,249.152,197.708,227.263,216.438 C205.371,235.161,174.948,247.005,141.131,247.543 C139.94,247.562,138.751,247.567,137.567,247.558 C113.782,247.375,91.5797,241.751,72.7083,231.968 C53.846,222.187,38.3258,208.242,28.1283,191.448 C28.1283,191.448,28.1283,191.448,28.1283,191.448 C37.7294,208.583,52.892,223.256,71.7783,233.704 C90.6556,244.15,113.268,250.367,137.544,250.557 C138.752,250.567,139.964,250.562,141.18,250.542 C175.678,249.985,206.732,237.765,229.011,218.469 C251.292,199.18,264.801,172.77,264.191,143.981 C263.622,116.873,250.673,92.5324,230.055,74.5679 C209.432,56.5973,181.127,44.9716,149.694,43.1956 C149.694,43.1956,149.694,43.1956,149.694,43.1956 z"/>
    </g>
    <g id="M">
      <g id="M1">
        <g id="M2">
          <g id="M3">
            <path id="M4" style="fill:#9e9e9e;fill-opacity:1;fill-rule:nonzero;opacity:1;stroke:none;" d="M125.965,66.6585 C123.589,66.8023,121.21,67.2606,118.905,67.8456 C118.891,68.0009,118.613,69.2492,118.613,69.2492 C117.303,76.4758,117.156,83.8773,116.162,91.7254 C115.316,98.4045,115.13,105.013,114.56,112.01 C114.032,118.481,113.157,125.269,112.626,131.765 C112.417,134.327,111.658,137.261,112.228,139.719 C114.221,142.598,116.825,142.564,120.127,143.599 C115.104,143.589,110.068,142.997,104.692,143.42 C99.2526,143.848,93.6374,142.914,88.0823,143.165 C88.7665,139.832,88.9295,136.413,89.5508,133.071 C90.1612,129.788,90.9519,126.321,91.2327,122.913 C91.7628,116.484,92.8991,109.954,93.7723,103.486 C94.4234,98.6626,95.2315,93.8745,95.9944,89.2011 C96.3137,87.2445,96.524,85.3399,96.747,83.3782 C96.567,83.6506,95.9309,84.6934,95.9309,84.6934 C90.6595,94.5036,86.0007,105.07,80.5667,115.168 C77.6034,120.675,74.9101,126.348,72.2497,132.31 C70.4735,136.29,68.8186,140.549,66.3871,143.936 C63.787,143.94,60.6564,144.568,57.7635,143.493 C53.8397,132.378,51.3645,120.434,48.9788,108.897 C47.9398,103.873,46.214,99.0082,45.2408,93.8167 C42.8006,104.104,41.4382,114.784,39.6333,125.203 C38.5674,131.356,36.5715,137.82,36.2361,144.018 C27.4705,144.592,18.2052,142.244,9.53946,143.944 C9.53946,143.944,8.87151,144.027,8.87151,144.027 C9.16838,143.747,10.9154,142.076,11.2599,142.306 C16.2777,142.287,23.0373,140.805,23.8862,135.227 C27.2219,113.307,30.5463,90.9492,33.0562,68.9496 C33.0562,68.9496,30.6977,66.3096,30.6977,66.3096 C30.6977,66.3096,30.0645,65.8567,30.0645,65.8567 C27.8613,65.5569,25.6555,65.4455,23.3489,65.2191 C23.2595,65.1128,21.9525,63.5644,21.723,63.1599 C32.1736,63.8394,42.713,63.6756,53.121,64.3102 C53.121,64.3102,53.749,64.5938,53.749,64.5938 C53.7994,64.777,54.6772,67.9377,55,69 C55,69,54.5901,67.8222,54.5901,67.8222 C52.1736,68.1647,49.8203,67.355,47.4636,67.9342 C48.5852,72.6273,49.9001,77.3032,51.2324,81.9718 C54.7181,94.1861,58.4055,106.858,61.9987,119.617 C62.2602,120.545,63.1318,123.401,63.5579,123.478 C63.776,123.517,64.5925,123.297,64.7842,123.317 C64.8907,123.089,66.1613,120.476,66.4185,120.603 C65.4427,115.635,63.6384,110.888,62.5184,106.029 C60.2286,96.0938,56.445,86.4937,54.1519,76.5665 C53.8332,75.1867,52.1858,70.9744,52.0909,68.5191 C52.0745,68.0937,52,67,52,67 C52,67,52.3943,66.9816,52.5673,66.8552 C54.5959,65.3734,55.3944,70.3515,55.607,71.3987 C56.8968,77.7524,59.0997,84.0688,61.1076,90.8818 C63.4238,98.7407,66.0918,106.769,68.0862,114.712 C68.0862,114.712,68.7413,115.588,68.7413,115.588 C68.8664,115.44,69.7615,114.42,69.8628,114.396 C78.5979,98.2883,85.4213,81.19,93.6244,64.8296 C100.85,64.2974,108.069,64.8131,115.088,65.2566 C114.935,65.734,114.298,68.3074,114.272,68.406 C113.71,68.4695,111.148,68.3506,110.926,68.3397 C108.888,77.0935,109.246,86.0331,107.9,94.8063 C106.902,101.308,106.779,108.339,106.36,115.182 C105.875,123.086,105.567,131.295,104.05,139.051 C104.05,139.051,104.674,139.961,104.674,139.961 C105.231,139.992,107.516,140.206,107.8,139.713 C108.406,138.657,108.011,136.545,108.173,135.338 C108.741,131.114,109.155,126.819,109.432,122.565 C110.665,103.609,112.375,84.2565,114.759,65.2067 C118.392,65.6883,122.661,65.5741,126.315,65.3281 C126.315,65.3281,127.048,65.3281,127.048,65.3281 C127.048,65.3281,126.455,66.1683,126.455,66.1683"/>
          </g>
          <path id="M2" style="fill:none;opacity:1;stroke:#9e9e9e;stroke-linecap:butt;stroke-linejoin:miter;stroke-miterlimit:10;stroke-opacity:0;stroke-width:1;" d="M125.965,66.6585 C123.589,66.8023,121.21,67.2606,118.905,67.8456 C118.891,68.0009,118.613,69.2492,118.613,69.2492 C117.303,76.4758,117.156,83.8773,116.162,91.7254 C115.316,98.4045,115.13,105.013,114.56,112.01 C114.032,118.481,113.157,125.269,112.626,131.765 C112.417,134.327,111.658,137.261,112.228,139.719 C114.221,142.598,116.825,142.564,120.127,143.599 C115.104,143.589,110.068,142.997,104.692,143.42 C99.2526,143.848,93.6374,142.914,88.0823,143.165 C88.7665,139.832,88.9295,136.413,89.5508,133.071 C90.1612,129.788,90.9519,126.321,91.2327,122.913 C91.7628,116.484,92.8991,109.954,93.7723,103.486 C94.4234,98.6626,95.2315,93.8745,95.9944,89.2011 C96.3137,87.2445,96.524,85.3399,96.747,83.3782 C96.567,83.6506,95.9309,84.6934,95.9309,84.6934 C90.6595,94.5036,86.0007,105.07,80.5667,115.168 C77.6034,120.675,74.9101,126.348,72.2497,132.31 C70.4735,136.29,68.8186,140.549,66.3871,143.936 C63.787,143.94,60.6564,144.568,57.7635,143.493 C53.8397,132.378,51.3645,120.434,48.9788,108.897 C47.9398,103.873,46.214,99.0082,45.2408,93.8167 C42.8006,104.104,41.4382,114.784,39.6333,125.203 C38.5674,131.356,36.5715,137.82,36.2361,144.018 C27.4705,144.592,18.2052,142.244,9.53946,143.944 C9.53946,143.944,8.87151,144.027,8.87151,144.027 C9.16838,143.747,10.9154,142.076,11.2599,142.306 C16.2777,142.287,23.0373,140.805,23.8862,135.227 C27.2219,113.307,30.5463,90.9492,33.0562,68.9496 C33.0562,68.9496,30.6977,66.3096,30.6977,66.3096 C30.6977,66.3096,30.0645,65.8567,30.0645,65.8567 C27.8613,65.5569,25.6555,65.4455,23.3489,65.2191 C23.2595,65.1128,21.9525,63.5644,21.723,63.1599 C32.1736,63.8394,42.713,63.6756,53.121,64.3102 C53.121,64.3102,53.749,64.5938,53.749,64.5938 C53.7994,64.777,54.6772,67.9377,55,69 C55,69,54.5901,67.8222,54.5901,67.8222 C52.1736,68.1647,49.8203,67.355,47.4636,67.9342 C48.5852,72.6273,49.9001,77.3032,51.2324,81.9718 C54.7181,94.1861,58.4055,106.858,61.9987,119.617 C62.2602,120.545,63.1318,123.401,63.5579,123.478 C63.776,123.517,64.5925,123.297,64.7842,123.317 C64.8907,123.089,66.1613,120.476,66.4185,120.603 C65.4427,115.635,63.6384,110.888,62.5184,106.029 C60.2286,96.0938,56.445,86.4937,54.1519,76.5665 C53.8332,75.1867,52.1858,70.9744,52.0909,68.5191 C52.0745,68.0937,52,67,52,67 C52,67,52.3943,66.9816,52.5673,66.8552 C54.5959,65.3734,55.3944,70.3515,55.607,71.3987 C56.8968,77.7524,59.0997,84.0688,61.1076,90.8818 C63.4238,98.7407,66.0918,106.769,68.0862,114.712 C68.0862,114.712,68.7413,115.588,68.7413,115.588 C68.8664,115.44,69.7615,114.42,69.8628,114.396 C78.5979,98.2883,85.4213,81.19,93.6244,64.8296 C100.85,64.2974,108.069,64.8131,115.088,65.2566 C114.935,65.734,114.298,68.3074,114.272,68.406 C113.71,68.4695,111.148,68.3506,110.926,68.3397 C108.888,77.0935,109.246,86.0331,107.9,94.8063 C106.902,101.308,106.779,108.339,106.36,115.182 C105.875,123.086,105.567,131.295,104.05,139.051 C104.05,139.051,104.674,139.961,104.674,139.961 C105.231,139.992,107.516,140.206,107.8,139.713 C108.406,138.657,108.011,136.545,108.173,135.338 C108.741,131.114,109.155,126.819,109.432,122.565 C110.665,103.609,112.375,84.2565,114.759,65.2067 C118.392,65.6883,122.661,65.5741,126.315,65.3281 C126.315,65.3281,127.048,65.3281,127.048,65.3281 C127.048,65.3281,126.455,66.1683,126.455,66.1683"/>
        </g>
      </g>
    </g>
    <g id="Science">
      <path id="Path" style="fill:#9e9e9e;fill-opacity:1;fill-rule:nonzero;opacity:1;stroke:#9e9e9e;stroke-linecap:round;stroke-linejoin:round;stroke-miterlimit:10;stroke-opacity:1;stroke-width:1;" d="M103.209,165.474 C102.865,168.187,99.9976,173.217,97.3846,171.535 C94.4282,169.633,92.6789,165.954,88.8276,165.935 C82.1715,165.902,77.7407,173.006,81.6643,178.543 C83.174,180.674,86.2768,181.657,88.5338,182.888 C94.7266,186.266,100.882,190.16,100.841,198.004 C100.811,203.748,96.6203,209.64,91.9867,212.777 C86.4887,216.5,80.2538,216.829,74.1124,215.043 C70.1364,213.887,66.5697,211.692,68.5483,207.569 C69.1981,206.215,70.4914,203.423,72.4784,204.16 C74.076,204.752,74.4849,206.59,75.6512,207.593 C79.1634,210.617,84.1899,212.717,88.3407,209.842 C91.9913,207.313,96.1176,203.306,94.4489,198.288 C92.7268,193.11,87.1929,190.098,82.7534,187.918 C75.6376,184.426,70.969,176.193,76.4085,169.357 C79.8657,165.012,86.6717,161.309,92.3655,161.686 C95.1712,161.873,97.9925,162.919,100.492,163.957 C101.608,164.421,102.658,164.271,103.209,165.474 z"/>
      <path id="Path" style="fill:#9e9e9e;fill-opacity:1;fill-rule:nonzero;opacity:1;stroke:#9e9e9e;stroke-linecap:round;stroke-linejoin:round;stroke-miterlimit:10;stroke-opacity:1;stroke-width:1;" d="M131.36,186.748 C132.843,188.608,128.034,191.755,126.507,191.295 C124.72,190.756,123.378,187.888,121.411,187.687 C118.34,187.373,116.002,189.835,114.68,192.283 C112.121,197.022,110.712,201.413,112.456,206.743 C113.53,210.026,115.734,213.369,119.633,212.228 C120.951,211.843,122.234,210.911,123.412,210.218 C124.442,209.613,127.013,206.746,128.296,207.67 C130.345,209.146,124.84,212.719,123.796,213.548 C122.12,214.878,117.728,216.108,115.664,216.259 C113.172,216.44,110.947,215.454,109.404,213.835 C105.589,209.831,105.951,203.642,107.139,198.596 C108.691,192.004,114.507,185.52,121.085,184.221 C122.981,183.847,125.247,183.414,127.163,184.212 C128.515,184.775,129.942,185.933,131.36,186.748 z"/>
      <path id="Path Copy" style="fill:#9e9e9e;fill-opacity:1;fill-rule:nonzero;opacity:1;stroke:#9e9e9e;stroke-linecap:round;stroke-linejoin:round;stroke-miterlimit:10;stroke-opacity:1;stroke-width:1;" d="M239.36,186.748 C240.843,188.608,236.034,191.755,234.507,191.295 C232.72,190.756,231.378,187.888,229.411,187.687 C226.34,187.373,224.002,189.835,222.68,192.283 C220.121,197.022,218.712,201.413,220.456,206.743 C221.53,210.026,223.734,213.369,227.633,212.228 C228.951,211.843,230.234,210.911,231.412,210.218 C232.442,209.613,235.013,206.746,236.296,207.67 C238.345,209.146,232.84,212.719,231.796,213.548 C230.12,214.878,225.729,216.108,223.664,216.259 C221.172,216.44,218.947,215.454,217.404,213.835 C213.589,209.831,213.951,203.642,215.139,198.596 C216.691,192.004,222.507,185.52,229.085,184.221 C230.981,183.847,233.247,183.414,235.163,184.212 C236.515,184.775,237.942,185.933,239.36,186.748 z"/>
      <path id="Path" style="fill:#9e9e9e;fill-opacity:1;fill-rule:nonzero;opacity:1;stroke:#9e9e9e;stroke-linecap:round;stroke-linejoin:round;stroke-miterlimit:10;stroke-opacity:1;stroke-width:1;" d="M143.507,183.751 C145.822,183.767,145.802,186.177,145.432,187.93 C144.446,192.596,143.908,197.518,143.255,202.247 C142.948,204.467,142.746,206.712,142.555,208.945 C142.502,209.561,142.186,210.883,142.831,211.293 C143.868,211.951,147.182,210.126,147.691,211.677 C147.96,212.495,146.403,213.103,145.872,213.44 C143.818,214.745,141.468,216.198,138.913,216.178 C135.121,216.148,135.923,211.67,136.284,209.23 C137.058,204.014,138.406,198.919,139.162,193.695 C139.367,192.281,140.393,189.416,139.094,188.259 C138.18,187.445,135.844,188.374,134.815,188.673 C133.549,186.328,141.798,184.082,143.507,183.751 z"/>
      <path id="Path" style="fill:#9e9e9e;fill-opacity:1;fill-rule:nonzero;opacity:1;stroke:#9e9e9e;stroke-linecap:round;stroke-linejoin:round;stroke-miterlimit:10;stroke-opacity:1;stroke-width:1;" d="M145.758,170.295 C143.601,170.938,139.602,176.405,143.144,177.782 C145.891,178.85,148.92,175.093,149.131,172.7 C149.335,170.391,147.656,169.364,145.758,170.295 z"/>
      <path id="Path" style="fill:#9e9e9e;fill-opacity:1;fill-rule:nonzero;opacity:1;stroke:#9e9e9e;stroke-linecap:round;stroke-linejoin:round;stroke-miterlimit:10;stroke-opacity:1;stroke-width:1;" d="M158.594,200.669 C157.595,201,154.876,203.506,157.411,203.77 C159.428,203.979,162.202,202.072,163.831,201.084 C165.003,200.374,166.289,199.9,167.494,199.252 C171.555,197.07,179.114,190.484,174.251,185.442 C170.32,181.366,164.1,185.052,160.603,187.498 C152.441,193.207,147.252,208.777,157.238,215.262 C161.977,218.338,167.247,214.817,170.983,212 C172.162,211.111,174.519,209.822,174.549,208.111 C174.579,206.37,170.217,209.349,169.347,209.71 C165.415,211.342,162.332,213.805,159.3,209.368 C155.694,204.091,157.16,195.988,161.086,191.225 C162.621,189.362,164.703,186.724,167.539,187.516 C169.778,188.142,169.855,192.111,168.927,193.741 C166.581,197.863,162.932,199.419,158.594,200.669 z"/>
      <path id="Path Copy" style="fill:#9e9e9e;fill-opacity:1;fill-rule:nonzero;opacity:1;stroke:#9e9e9e;stroke-linecap:round;stroke-linejoin:round;stroke-miterlimit:10;stroke-opacity:1;stroke-width:1;" d="M249.594,200.669 C248.595,201,245.876,203.506,248.411,203.77 C250.428,203.979,253.202,202.072,254.831,201.084 C256.003,200.374,257.289,199.9,258.494,199.252 C262.555,197.07,270.114,190.484,265.251,185.442 C261.32,181.366,255.1,185.052,251.603,187.498 C243.441,193.207,238.252,208.777,248.238,215.262 C252.977,218.338,258.247,214.817,261.983,212 C263.162,211.111,265.519,209.822,265.549,208.111 C265.579,206.37,261.217,209.349,260.347,209.71 C256.415,211.342,253.332,213.805,250.3,209.368 C246.694,204.091,248.16,195.988,252.086,191.225 C253.621,189.362,255.703,186.724,258.539,187.516 C260.778,188.142,260.855,192.111,259.927,193.741 C257.581,197.863,253.932,199.419,249.594,200.669 z"/>
      <path id="Path" style="fill:#9e9e9e;fill-opacity:1;fill-rule:nonzero;opacity:1;stroke:#9e9e9e;stroke-linecap:round;stroke-linejoin:round;stroke-miterlimit:10;stroke-opacity:1;stroke-width:1;" d="M181.9,186.07 C183.752,185.365,185.6,184.684,187.465,184.012 C188.049,183.802,189.224,183.238,189.806,183.664 C190.459,184.143,190.216,185.323,190.142,185.997 C189.921,188,189.704,190.001,189.681,192.02 C193.967,187.801,199.384,181.721,205.7,184.24 C208.195,185.235,208.259,189.046,207.957,191.392 C207.163,197.552,205.644,203.816,205.26,209.996 C205.086,212.79,207.862,211.165,209.424,210.716 C210.142,210.51,211.281,210.57,210.914,211.626 C210.517,212.769,209.038,213.388,208.094,213.992 C205.697,215.524,199.5,218.947,199.251,213.741 C199.223,213.142,199.382,212.59,199.495,212.005 C200.894,204.788,202.511,197.328,202.242,190.139 C202.15,187.705,199.804,187.435,197.962,188.286 C195.059,189.626,192.784,192.454,191.004,195.029 C188.742,198.303,187.841,202.85,187.53,206.735 C187.367,208.773,187.998,211.777,186.833,213.48 C185.463,215.483,179.637,218.44,181.239,213.277 C183.558,205.803,184.194,197.614,184.262,189.711 C184.295,185.89,180.16,189.756,179.122,188.007 C178.358,186.719,181.211,186.3,181.9,186.07 z"/>
    </g>
  </g>
</svg>
